<svg xmlns="http://www.w3.org/2000/svg" viewBox="0 0 720 440" width="100%" height="100%">
  <defs>
    <linearGradient id="borderGrad" x1="0%" y1="0%" x2="100%" y2="100%">
      <stop offset="0%" stop-color="#58a6ff" stop-opacity="0.1"/>
      <stop offset="100%" stop-color="#8b5cf6" stop-opacity="0.05"/>
    </linearGradient>
    <radialGradient id="nodeGlow">
      <stop offset="0%" stop-color="#58a6ff" stop-opacity="0.8"/>
      <stop offset="100%" stop-color="#58a6ff" stop-opacity="0"/>
    </radialGradient>
    <radialGradient id="nodeGlow2">
      <stop offset="0%" stop-color="#8b5cf6" stop-opacity="0.8"/>
      <stop offset="100%" stop-color="#8b5cf6" stop-opacity="0"/>
    </radialGradient>
    <linearGradient id="edgeGrad" x1="0%" y1="0%" x2="100%" y2="100%">
      <stop offset="0%" stop-color="#58a6ff" stop-opacity="0.3"/>
      <stop offset="100%" stop-color="#8b5cf6" stop-opacity="0.3"/>
    </linearGradient>
    <linearGradient id="flowGrad" x1="0%" y1="0%" x2="100%" y2="0%">
      <stop offset="0%" stop-color="#58a6ff" stop-opacity="0"/>
      <stop offset="50%" stop-color="#58a6ff" stop-opacity="1"/>
      <stop offset="100%" stop-color="#58a6ff" stop-opacity="0"/>
    </linearGradient>
    <filter id="glow">
      <feGaussianBlur stdDeviation="2" result="blur"/>
      <feComposite in="SourceGraphic" in2="blur" operator="over"/>
    </filter>
    <filter id="nodeFilter">
      <feGaussianBlur stdDeviation="4"/>
    </filter>
  </defs>

  <rect x="0" y="0" width="720" height="440" rx="8" fill="#0d1117" stroke="url(#borderGrad)" stroke-width="1"/>

  <rect x="0" y="0" width="720" height="32" rx="8" fill="#161b22"/>
  <rect x="0" y="24" width="720" height="8" fill="#161b22"/>
  <text x="360" y="20" font-family="'Segoe UI', Arial, sans-serif" font-size="11" font-weight="600"
        fill="#8b949e" text-anchor="middle" letter-spacing="2">NEURAL NETWORK · ML PIPELINE</text>

  <!-- Neural Network Layer -->
  <text x="360" y="52" font-family="'Courier New', monospace" font-size="9" fill="#484f58" text-anchor="middle" letter-spacing="3">NEURAL TOPOLOGY</text>

  <!-- Input layer nodes (3) -->
  <circle cx="80" cy="120" r="5" fill="#21262d" stroke="#58a6ff" stroke-width="1"/>
  <circle cx="80" cy="150" r="5" fill="#21262d" stroke="#58a6ff" stroke-width="1"/>
  <circle cx="80" cy="180" r="5" fill="#21262d" stroke="#58a6ff" stroke-width="1"/>

  <!-- Hidden layer 1 nodes (4) -->
  <circle cx="200" cy="100" r="5" fill="#21262d" stroke="#8b5cf6" stroke-width="1"/>
  <circle cx="200" cy="135" r="5" fill="#21262d" stroke="#8b5cf6" stroke-width="1"/>
  <circle cx="200" cy="170" r="5" fill="#21262d" stroke="#8b5cf6" stroke-width="1"/>
  <circle cx="200" cy="205" r="5" fill="#21262d" stroke="#8b5cf6" stroke-width="1"/>

  <!-- Hidden layer 2 nodes (4) -->
  <circle cx="330" cy="100" r="5" fill="#21262d" stroke="#3b82f6" stroke-width="1"/>
  <circle cx="330" cy="135" r="5" fill="#21262d" stroke="#3b82f6" stroke-width="1"/>
  <circle cx="330" cy="170" r="5" fill="#21262d" stroke="#3b82f6" stroke-width="1"/>
  <circle cx="330" cy="205" r="5" fill="#21262d" stroke="#3b82f6" stroke-width="1"/>

  <!-- Output layer nodes (3) -->
  <circle cx="460" cy="120" r="5" fill="#21262d" stroke="#10b981" stroke-width="1"/>
  <circle cx="460" cy="150" r="5" fill="#21262d" stroke="#10b981" stroke-width="1"/>
  <circle cx="460" cy="180" r="5" fill="#21262d" stroke="#10b981" stroke-width="1"/>

  <!-- Connections: Input → H1 -->
  <g stroke="#30363d" stroke-width="0.5" opacity="0.6">
    <line x1="85" y1="120" x2="195" y2="100"/>
    <line x1="85" y1="120" x2="195" y2="135"/>
    <line x1="85" y1="120" x2="195" y2="170"/>
    <line x1="85" y1="120" x2="195" y2="205"/>
    <line x1="85" y1="150" x2="195" y2="100"/>
    <line x1="85" y1="150" x2="195" y2="135"/>
    <line x1="85" y1="150" x2="195" y2="170"/>
    <line x1="85" y1="150" x2="195" y2="205"/>
    <line x1="85" y1="180" x2="195" y2="100"/>
    <line x1="85" y1="180" x2="195" y2="135"/>
    <line x1="85" y1="180" x2="195" y2="170"/>
    <line x1="85" y1="180" x2="195" y2="205"/>
  </g>
  <g stroke="#58a6ff" stroke-width="0.5" opacity="0.3">
    <line x1="85" y1="120" x2="195" y2="100"><animate attributeName="opacity" values="0;0.6;0" dur="3s" repeatCount="indefinite"/></line>
    <line x1="85" y1="150" x2="195" y2="135"><animate attributeName="opacity" values="0;0.6;0" dur="3s" begin="0.5s" repeatCount="indefinite"/></line>
    <line x1="85" y1="180" x2="195" y2="170"><animate attributeName="opacity" values="0;0.6;0" dur="3s" begin="1s" repeatCount="indefinite"/></line>
  </g>

  <!-- Connections: H1 → H2 -->
  <g stroke="#30363d" stroke-width="0.5" opacity="0.6">
    <line x1="205" y1="100" x2="325" y2="100"/>
    <line x1="205" y1="100" x2="325" y2="135"/>
    <line x1="205" y1="100" x2="325" y2="170"/>
    <line x1="205" y1="100" x2="325" y2="205"/>
    <line x1="205" y1="135" x2="325" y2="100"/>
    <line x1="205" y1="135" x2="325" y2="135"/>
    <line x1="205" y1="135" x2="325" y2="170"/>
    <line x1="205" y1="135" x2="325" y2="205"/>
    <line x1="205" y1="170" x2="325" y2="100"/>
    <line x1="205" y1="170" x2="325" y2="135"/>
    <line x1="205" y1="170" x2="325" y2="170"/>
    <line x1="205" y1="170" x2="325" y2="205"/>
    <line x1="205" y1="205" x2="325" y2="100"/>
    <line x1="205" y1="205" x2="325" y2="135"/>
    <line x1="205" y1="205" x2="325" y2="170"/>
    <line x1="205" y1="205" x2="325" y2="205"/>
  </g>
  <g stroke="#8b5cf6" stroke-width="0.5" opacity="0.3">
    <line x1="205" y1="100" x2="325" y2="100"><animate attributeName="opacity" values="0;0.6;0" dur="3s" begin="0.3s" repeatCount="indefinite"/></line>
    <line x1="205" y1="135" x2="325" y2="135"><animate attributeName="opacity" values="0;0.6;0" dur="3s" begin="0.8s" repeatCount="indefinite"/></line>
    <line x1="205" y1="170" x2="325" y2="170"><animate attributeName="opacity" values="0;0.6;0" dur="3s" begin="1.3s" repeatCount="indefinite"/></line>
    <line x1="205" y1="205" x2="325" y2="205"><animate attributeName="opacity" values="0;0.6;0" dur="3s" begin="1.8s" repeatCount="indefinite"/></line>
  </g>

  <!-- Connections: H2 → Output -->
  <g stroke="#30363d" stroke-width="0.5" opacity="0.6">
    <line x1="335" y1="100" x2="455" y2="120"/>
    <line x1="335" y1="100" x2="455" y2="150"/>
    <line x1="335" y1="100" x2="455" y2="180"/>
    <line x1="335" y1="135" x2="455" y2="120"/>
    <line x1="335" y1="135" x2="455" y2="150"/>
    <line x1="335" y1="135" x2="455" y2="180"/>
    <line x1="335" y1="170" x2="455" y2="120"/>
    <line x1="335" y1="170" x2="455" y2="150"/>
    <line x1="335" y1="170" x2="455" y2="180"/>
    <line x1="335" y1="205" x2="455" y2="120"/>
    <line x1="335" y1="205" x2="455" y2="150"/>
    <line x1="335" y1="205" x2="455" y2="180"/>
  </g>
  <g stroke="#3b82f6" stroke-width="0.5" opacity="0.3">
    <line x1="335" y1="100" x2="455" y2="120"><animate attributeName="opacity" values="0;0.6;0" dur="3s" begin="0.6s" repeatCount="indefinite"/></line>
    <line x1="335" y1="135" x2="455" y2="150"><animate attributeName="opacity" values="0;0.6;0" dur="3s" begin="1.1s" repeatCount="indefinite"/></line>
    <line x1="335" y1="170" x2="455" y2="180"><animate attributeName="opacity" values="0;0.6;0" dur="3s" begin="1.6s" repeatCount="indefinite"/></line>
  </g>

  <!-- Layer labels -->
  <text x="80" y="220" font-family="'Courier New', monospace" font-size="9" fill="#484f58" text-anchor="middle" letter-spacing="1">INPUT</text>
  <text x="200" y="228" font-family="'Courier New', monospace" font-size="8" fill="#484f58" text-anchor="middle" letter-spacing="1">HIDDEN 1</text>
  <text x="330" y="228" font-family="'Courier New', monospace" font-size="8" fill="#484f58" text-anchor="middle" letter-spacing="1">HIDDEN 2</text>
  <text x="460" y="220" font-family="'Courier New', monospace" font-size="9" fill="#484f58" text-anchor="middle" letter-spacing="1">OUTPUT</text>

  <!-- Animated gradient flow on one path -->
  <line x1="80" y1="150" x2="460" y2="150" stroke="url(#flowGrad)" stroke-width="1" opacity="0.8">
    <animate attributeName="x1" values="80;460;80" dur="4s" repeatCount="indefinite"/>
    <animate attributeName="opacity" values="0;0.8;0" dur="4s" repeatCount="indefinite"/>
  </line>

  <!-- Node pulsations -->
  <circle cx="80" cy="120" r="8" fill="url(#nodeGlow)" filter="url(#nodeFilter)">
    <animate attributeName="r" values="5;10;5" dur="2s" repeatCount="indefinite"/>
    <animate attributeName="opacity" values="0.3;0.6;0.3" dur="2s" repeatCount="indefinite"/>
  </circle>
  <circle cx="200" cy="135" r="8" fill="url(#nodeGlow2)" filter="url(#nodeFilter)">
    <animate attributeName="r" values="5;10;5" dur="2.5s" begin="0.5s" repeatCount="indefinite"/>
    <animate attributeName="opacity" values="0.3;0.6;0.3" dur="2.5s" begin="0.5s" repeatCount="indefinite"/>
  </circle>
  <circle cx="330" cy="170" r="8" fill="url(#nodeGlow)" filter="url(#nodeFilter)">
    <animate attributeName="r" values="5;10;5" dur="3s" begin="1s" repeatCount="indefinite"/>
    <animate attributeName="opacity" values="0.3;0.6;0.3" dur="3s" begin="1s" repeatCount="indefinite"/>
  </circle>
  <circle cx="460" cy="150" r="8" fill="url(#nodeGlow2)" filter="url(#nodeFilter)">
    <animate attributeName="r" values="5;10;5" dur="2s" begin="1.5s" repeatCount="indefinite"/>
    <animate attributeName="opacity" values="0.3;0.6;0.3" dur="2s" begin="1.5s" repeatCount="indefinite"/>
  </circle>

  <line x1="28" y1="238" x2="692" y2="238" stroke="#21262d" stroke-width="1"/>

  <!-- Pipeline Section -->
  <text x="360" y="258" font-family="'Courier New', monospace" font-size="9" fill="#484f58" text-anchor="middle" letter-spacing="3">ML PIPELINE</text>

  <!-- Pipeline nodes -->
  <g>
    <rect x="20" y="278" width="74" height="26" rx="4" fill="#161b22" stroke="#58a6ff" stroke-width="0.5"/>
    <text x="57" y="294" font-family="'Courier New', monospace" font-size="8" fill="#58a6ff" text-anchor="middle">Dataset</text>
  </g>
  <g>
    <line x1="94" y1="291" x2="118" y2="291" stroke="#30363d" stroke-width="1"/>
    <polygon points="118,287 126,291 118,295" fill="#30363d"/>
    <line x1="94" y1="291" x2="118" y2="291" stroke="#58a6ff" stroke-width="0.5" opacity="0.6">
      <animate attributeName="opacity" values="0;0.8;0" dur="2s" repeatCount="indefinite"/>
    </line>
  </g>
  <g>
    <rect x="126" y="278" width="74" height="26" rx="4" fill="#161b22" stroke="#8b5cf6" stroke-width="0.5"/>
    <text x="163" y="294" font-family="'Courier New', monospace" font-size="8" fill="#8b5cf6" text-anchor="middle">Feature Eng</text>
  </g>
  <g>
    <line x1="200" y1="291" x2="224" y2="291" stroke="#30363d" stroke-width="1"/>
    <polygon points="224,287 232,291 224,295" fill="#30363d"/>
    <line x1="200" y1="291" x2="224" y2="291" stroke="#8b5cf6" stroke-width="0.5" opacity="0.6">
      <animate attributeName="opacity" values="0;0.8;0" dur="2s" begin="0.3s" repeatCount="indefinite"/>
    </line>
  </g>
  <g>
    <rect x="232" y="278" width="74" height="26" rx="4" fill="#161b22" stroke="#3b82f6" stroke-width="0.5"/>
    <text x="269" y="294" font-family="'Courier New', monospace" font-size="8" fill="#3b82f6" text-anchor="middle">Training</text>
  </g>
  <g>
    <line x1="306" y1="291" x2="330" y2="291" stroke="#30363d" stroke-width="1"/>
    <polygon points="330,287 338,291 330,295" fill="#30363d"/>
    <line x1="306" y1="291" x2="330" y2="291" stroke="#3b82f6" stroke-width="0.5" opacity="0.6">
      <animate attributeName="opacity" values="0;0.8;0" dur="2s" begin="0.6s" repeatCount="indefinite"/>
    </line>
  </g>
  <g>
    <rect x="338" y="278" width="74" height="26" rx="4" fill="#161b22" stroke="#f59e0b" stroke-width="0.5"/>
    <text x="375" y="294" font-family="'Courier New', monospace" font-size="8" fill="#f59e0b" text-anchor="middle">Evaluation</text>
  </g>
  <g>
    <line x1="412" y1="291" x2="436" y2="291" stroke="#30363d" stroke-width="1"/>
    <polygon points="436,287 444,291 436,295" fill="#30363d"/>
    <line x1="412" y1="291" x2="436" y2="291" stroke="#f59e0b" stroke-width="0.5" opacity="0.6">
      <animate attributeName="opacity" values="0;0.8;0" dur="2s" begin="0.9s" repeatCount="indefinite"/>
    </line>
  </g>
  <g>
    <rect x="444" y="278" width="74" height="26" rx="4" fill="#161b22" stroke="#ef4444" stroke-width="0.5"/>
    <text x="481" y="294" font-family="'Courier New', monospace" font-size="8" fill="#ef4444" text-anchor="middle">Deploy</text>
  </g>
  <g>
    <line x1="518" y1="291" x2="542" y2="291" stroke="#30363d" stroke-width="1"/>
    <polygon points="542,287 550,291 542,295" fill="#30363d"/>
    <line x1="518" y1="291" x2="542" y2="291" stroke="#ef4444" stroke-width="0.5" opacity="0.6">
      <animate attributeName="opacity" values="0;0.8;0" dur="2s" begin="1.2s" repeatCount="indefinite"/>
    </line>
  </g>
  <g>
    <rect x="550" y="278" width="74" height="26" rx="4" fill="#161b22" stroke="#10b981" stroke-width="0.5"/>
    <text x="587" y="294" font-family="'Courier New', monospace" font-size="8" fill="#10b981" text-anchor="middle">Agent</text>
  </g>
  <g>
    <line x1="624" y1="291" x2="648" y2="291" stroke="#30363d" stroke-width="1"/>
    <polygon points="648,287 656,291 648,295" fill="#30363d"/>
  </g>
  <g>
    <rect x="654" y="278" width="50" height="26" rx="4" fill="#161b22" stroke="#58a6ff" stroke-width="0.5"/>
    <text x="679" y="294" font-family="'Courier New', monospace" font-size="7" fill="#58a6ff" text-anchor="middle">Feedback</text>
  </g>

  <!-- Feedback loop arrow going back -->
  <path d="M 679 304 L 679 330 L 57 330 L 57 304" fill="none" stroke="#30363d" stroke-width="0.8" stroke-dasharray="3,3"/>
  <polygon points="57,308 50,304 57,300" fill="#58a6ff" opacity="0.5">
    <animate attributeName="opacity" values="0.3;0.8;0.3" dur="2s" repeatCount="indefinite"/>
  </polygon>
  <text x="360" y="344" font-family="'Courier New', monospace" font-size="8" fill="#484f58" text-anchor="middle">CONTINUOUS LEARNING LOOP</text>

  <!-- Pipeline node glow pulses -->
  <rect x="20" y="278" width="74" height="26" rx="4" fill="none" stroke="#58a6ff" stroke-width="1" opacity="0.3">
    <animate attributeName="opacity" values="0;0.6;0" dur="3s" repeatCount="indefinite"/>
  </rect>
  <rect x="550" y="278" width="74" height="26" rx="4" fill="none" stroke="#10b981" stroke-width="1" opacity="0.3">
    <animate attributeName="opacity" values="0;0.6;0" dur="3s" begin="1.5s" repeatCount="indefinite"/>
  </rect>

  <line x1="28" y1="360" x2="692" y2="360" stroke="#21262d" stroke-width="1"/>
  <text x="360" y="380" font-family="'Courier New', monospace" font-size="9" fill="#484f58" text-anchor="middle">→ AUTOMATED PIPELINE RUNNING IN PRODUCTION</text>

  <text x="360" y="405" font-family="'Courier New', monospace" font-size="12" font-weight="600" fill="#10b981" text-anchor="middle">
    ● ALL SYSTEMS OPERATIONAL
    <animate attributeName="opacity" values="0.4;1;0.4" dur="2s" repeatCount="indefinite"/>
  </text>
  <text x="360" y="425" font-family="'Courier New', monospace" font-size="9" fill="#484f58" text-anchor="middle">LAST PIPELINE RUN: CONTINUOUS · SUCCESS RATE: 99.7%</text>
</svg>
